<svg width="921" height="152" viewBox="0 0 921 152" fill="none" xmlns="http://www.w3.org/2000/svg">
<path d="M325.771 100.429C334.854 97.7772 340.178 89.9656 340.178 79.2892C340.178 72.7424 338.396 67.5927 334.8 63.7447C324.316 52.5263 306.508 57.3744 302.068 72.6554C300.249 78.9169 300.251 79.3949 302.15 86.2289C303.85 92.3469 309.222 98.6853 313.488 99.6066C314.754 99.8798 316.617 100.46 317.63 100.896C320.191 101.999 320.44 101.985 325.771 100.429H325.771ZM309.294 149.837C299.751 146.718 291.125 139.367 286.604 130.502C285.307 127.958 285.961 127.432 294.503 124.149C300.519 121.837 302.444 121.58 302.444 123.091C302.444 125.283 308.168 131.173 312.093 133.019C319.945 136.711 330.27 134.497 335.17 128.069C337.43 125.103 339.444 117.216 339.076 112.768L338.881 110.405L335.158 113.002C329.861 116.696 321.104 118.321 313.948 116.937C305.388 115.281 299.967 112.429 294.225 106.558C288.162 100.358 285.552 95.3352 283.65 86.2115C279.842 67.9362 291.434 48.3819 309.52 42.572C318.708 39.6203 331.592 41.5209 337.027 46.6301L339.117 48.594L339.417 45.9672L339.717 43.3404H348H356.283L356.552 80.174C356.835 118.873 356.414 124.163 352.402 132.394C348.429 140.543 340.724 146.961 331.262 150.004C325.287 151.925 315.453 151.85 309.294 149.837V149.837Z" fill="#4286F5"/>
<path d="M168.324 97.4987C175.448 92.5587 178.926 81.8213 176.412 72.5249C174.318 64.7772 165.408 57.6135 157.866 57.6135C145.702 57.6135 136.853 66.5979 136.806 78.9967C136.768 88.8804 142.883 97.9961 150.945 100.073C156.174 101.421 164.432 100.197 168.324 97.4987ZM149.87 116.904C135.294 114.304 124.72 104.786 119.739 89.7816C117.438 82.8507 118.205 70.8462 121.383 64.0474C128.223 49.4111 141.235 41.0098 156.981 41.061C186.986 41.1587 204.735 71.6443 190.637 98.8681C186.605 106.653 175.093 114.954 166.011 116.626C157.886 118.121 156.801 118.14 149.87 116.904V116.904Z" fill="#EA4235"/>
<path d="M410.111 75.7307C413.509 74.2179 412.255 74.6286 412.852 74.6125C413.449 74.5964 417.28 72.9455 420.561 71.4261C423.841 69.9067 427.184 68.6636 427.987 68.6636C428.791 68.6636 424.059 70.7029 424.059 70.3013C424.059 69.8997 431.729 66.4277 434.517 65.4798C439.442 63.8046 439.539 63.7065 437.97 61.9719C433.334 56.8462 423.962 55.8244 417.724 59.7645C412.667 62.9588 408.634 68.3827 407.855 73.0375C407.156 77.2135 406.82 77.1957 410.111 75.7307V75.7307ZM419.786 116.888C405.235 113.472 395.696 104.278 390.866 89.0148C389.556 84.8777 389.6 72.8662 390.94 68.7289C396.583 51.2961 409.408 41.0384 425.559 41.0384C434.781 41.0384 442.397 44.1716 449.013 50.6865C453.744 55.3447 459.82 65.5268 459.82 68.7962C459.82 70.9107 458.718 71.5493 447.395 75.9982C438.29 79.5759 433.896 81.3781 426.688 84.4913C425.423 85.0378 423.559 85.8214 422.547 86.2324C421.534 86.6435 418.842 87.7775 416.565 88.7526C414.287 89.7276 411.843 90.7033 411.135 90.9208C408.923 91.5997 416.533 98.7117 420.706 99.8651C428.907 102.132 436.124 100.573 441.843 95.298C443.998 93.3106 446.184 91.6845 446.7 91.6845C448.26 91.6845 459.787 99.4373 459.804 100.498C459.836 102.458 451.756 109.844 446.416 112.738C441.518 115.392 430.289 118.55 426.688 118.286C425.929 118.23 422.823 117.601 419.786 116.888H419.786Z" fill="#EA4235"/>
<path d="M47.9741 116.502C36.7416 114.706 25.8994 108.757 16.4172 99.1876C9.76133 92.4702 5.38549 85.372 1.71814 75.3435C-0.613572 68.9674 -0.559716 47.9494 1.80487 41.4988C9.28068 21.1046 23.5915 7.42035 43.8326 1.31102C50.2643 -0.630244 70.7148 -0.357944 76.5042 1.74604C85.2814 4.93586 96.0271 11.1474 99.0291 14.7666C100.129 16.0926 99.5681 16.9947 94.4011 22.211C91.1674 25.4756 88.3026 28.1461 88.0349 28.1455C87.7671 28.1449 86.3437 27.108 84.8718 25.8414C77.2466 19.2801 62.5854 15.8099 51.4792 17.9377C38.8316 20.3608 28.3419 28.3745 22.449 40.1156C19.4998 45.9918 17.5846 46.3337 17.5846 58.5343C17.5846 70.1256 19.6124 71.3253 21.9368 76.2888C23.3078 79.2166 26.7901 84.0882 29.6751 87.1145C40.2031 98.1581 55.5913 102.503 70.3126 98.5876C78.5717 96.3911 82.1098 94.5014 87.2647 89.5335C91.7726 85.189 94.7102 79.8054 95.753 73.9775L96.3674 70.5435L77.6927 70.2942L59.018 70.0448V61.4463V52.8477L85.7074 52.9243C100.387 52.9663 112.65 53.0027 112.96 53.005C113.27 53.008 113.969 55.2292 114.513 57.9424C116.564 68.1563 112.801 83.6268 105.582 94.6708C99.6356 103.767 93.2708 108.676 79.7253 114.614C74.1072 117.077 57.6776 118.054 47.9741 116.502V116.502Z" fill="#4185F4"/>
<path d="M245.663 99.8309C249.945 98.7577 255.691 93.3606 257.797 88.4328C258.641 86.4584 259.997 82.6585 259.797 78.8617C259.511 73.4405 258.36 69.5869 257.225 68.2115C252.43 62.401 249.919 60.2708 246.402 59.0291C238.524 56.2481 231.193 57.7695 225.265 63.4153C213.675 74.4543 218.121 94.9487 233.216 100.063C237.541 101.529 238.997 101.501 245.663 99.8309V99.8309ZM229.784 116.524C220.012 114.461 209.803 106.684 205.173 97.7745C197.459 82.9298 199.419 65.7157 210.181 53.7971C225.535 36.793 252.601 36.8007 268.241 53.8135C281.697 68.4503 280.302 95.0199 265.408 107.777C258.308 113.858 251.397 116.597 242.089 117.018C237.574 117.222 232.037 116.999 229.784 116.524V116.524Z" fill="#FABC05"/>
<path d="M365.947 59.4551V3.21729L374.92 3.48086L383.893 3.74438V59.4551V115.166L374.92 115.429L365.947 115.693V59.4551Z" fill="#34A853"/>
<path d="M504.441 107.478H553.887V119.283H491.409V7.20605H504.441V107.478Z" fill="#7F7F7F"/>
<path d="M569.985 12.4956C569.985 9.68473 570.675 7.58936 572.055 6.20947C573.435 4.77848 575.224 4.06299 577.421 4.06299C579.619 4.06299 581.433 4.77848 582.864 6.20947C584.295 7.64046 585.011 9.73584 585.011 12.4956C585.011 15.2554 584.295 17.3763 582.864 18.8584C581.433 20.2894 579.619 21.0049 577.421 21.0049C575.224 21.0049 573.435 20.2894 572.055 18.8584C570.675 17.3763 569.985 15.2554 569.985 12.4956ZM583.784 119.283H571.059V35.2637H583.784V119.283Z" fill="#7F7F7F"/>
<path d="M623.494 0V28.9775C623.494 35.1615 623.29 40.9876 622.881 46.4561H623.494C629.423 38.0745 638.06 33.8838 649.405 33.8838C660.802 33.8838 669.516 37.6657 675.546 45.2295C681.679 52.7422 684.746 63.4235 684.746 77.2734C684.746 91.0723 681.654 101.779 675.47 109.394C669.337 117.009 660.649 120.816 649.405 120.816C638.162 120.816 629.525 116.702 623.494 108.474H622.574L619.891 119.283H610.769V0H623.494ZM671.483 76.9668C671.483 66.0811 669.567 57.9806 665.734 52.6655C661.901 47.2993 655.819 44.6162 647.489 44.6162C639.158 44.6162 633.077 47.0949 629.244 52.0522C625.411 57.0096 623.494 65.3911 623.494 77.1968C623.494 88.9513 625.462 97.4095 629.397 102.571C633.332 107.631 639.644 110.161 648.332 110.161C656.049 110.161 661.824 107.35 665.657 101.728C669.541 96.1063 671.483 87.8525 671.483 76.9668Z" fill="#7F7F7F"/>
<path d="M745.384 33.7305C749.063 33.7305 752.411 34.0371 755.426 34.6504L753.663 46.4561C750.188 45.6895 747.121 45.3062 744.464 45.3062C737.616 45.3062 731.789 48.0659 726.985 53.5854C722.181 59.0539 719.779 65.9277 719.779 74.207V119.283H707.054V35.2637H717.556L719.013 50.8257H719.626C722.743 45.3062 726.5 41.0898 730.895 38.1768C735.341 35.2126 740.171 33.7305 745.384 33.7305Z" fill="#7F7F7F"/>
<path d="M766.389 77.1968C766.389 63.5002 769.787 52.8444 776.584 45.2295C783.433 37.5635 792.836 33.7305 804.795 33.7305C816.806 33.7305 826.235 37.6401 833.083 45.4595C840.085 53.2277 843.585 63.8835 843.585 77.4268C843.585 90.9701 840.136 101.6 833.236 109.317C826.337 116.983 816.806 120.816 804.642 120.816C804.438 120.816 804.233 120.816 804.029 120.816C792.939 120.816 783.893 116.881 776.891 109.011C769.889 101.14 766.389 90.8934 766.389 78.27C766.389 77.9123 766.389 77.5545 766.389 77.1968ZM804.795 44.6162C787.981 44.6162 779.574 55.4764 779.574 77.1968C779.574 87.9292 781.721 96.1063 786.014 101.728C790.358 107.35 796.669 110.161 804.949 110.161C813.279 110.161 819.591 107.375 823.884 101.805C828.228 96.1829 830.4 88.0059 830.4 77.2734C830.4 66.541 828.228 58.415 823.884 52.8955C819.591 47.376 813.228 44.6162 804.795 44.6162Z" fill="#7F7F7F"/>
<path d="M887.282 110.314C901.081 110.314 907.98 106.021 907.98 97.4351C907.98 94.1642 906.549 91.3789 903.687 89.0791C900.876 86.7282 895.357 83.9684 887.128 80.7998C879.258 77.8867 873.662 75.3314 870.34 73.1338C867.069 70.9362 864.641 68.4831 863.057 65.7744C861.473 63.0658 860.681 59.7694 860.681 55.8853C860.681 49.0881 863.466 43.6963 869.037 39.71C874.607 35.7236 882.069 33.7305 891.421 33.7305C900.774 33.7305 909.794 35.5703 918.482 39.25L913.959 49.5991C905.578 46.175 898.167 44.4629 891.728 44.4629C885.34 44.4629 880.587 45.3828 877.469 47.2227C874.352 49.0625 872.793 51.6689 872.793 55.042C872.793 57.2907 873.355 59.2072 874.479 60.7915C875.604 62.3758 877.444 63.8835 879.999 65.3145C882.554 66.7454 887.486 68.8153 894.794 71.5239C904.76 75.1525 911.481 78.8066 914.956 82.4863C918.482 86.166 920.246 90.7912 920.246 96.3618C920.246 104.181 917.307 110.212 911.43 114.454C905.604 118.695 897.273 120.816 886.438 120.816C875.655 120.816 867.146 119.053 860.911 115.527V103.721C869.599 108.116 878.389 110.314 887.282 110.314Z" fill="#7F7F7F"/>
</svg>
